<?xml version="1.0" standalone="no"?>
<!DOCTYPE svg PUBLIC "-//W3C//DTD SVG 20010904//EN"
 "http://www.w3.org/TR/2001/REC-SVG-20010904/DTD/svg10.dtd">
<svg version="1.0" xmlns="http://www.w3.org/2000/svg"
 width="848.000000pt" height="848.000000pt" viewBox="0 0 848.000000 848.000000"
 preserveAspectRatio="xMidYMid meet">
<metadata>
Created by potrace 1.11, written by Peter Selinger 2001-2013
</metadata>
<g transform="translate(0.000000,848.000000) scale(0.100000,-0.100000)"
fill="#000000" stroke="none">
<path d="M2110 6763 c-39 -7 -75 -48 -166 -186 -536 -814 -1154 -1937 -1556
-2827 -39 -85 -76 -168 -84 -185 -7 -16 -34 -82 -59 -145 -25 -63 -50 -124
-55 -135 -49 -115 -140 -415 -156 -515 -2 -14 -9 -54 -16 -90 -13 -72 -17
-305 -6 -388 10 -74 59 -211 99 -278 37 -61 127 -156 174 -185 17 -11 45 -19
64 -19 61 0 96 50 195 280 49 113 110 252 137 309 27 57 49 105 49 106 0 7
136 290 229 475 391 783 795 1410 1215 1885 204 230 457 481 680 673 361 312
695 510 843 500 45 -3 49 -5 59 -38 10 -29 8 -45 -12 -103 -48 -141 -186 -389
-457 -822 -512 -817 -643 -1039 -856 -1450 -45 -86 -135 -288 -180 -403 -26
-65 -107 -325 -115 -367 -43 -232 -48 -272 -50 -410 -5 -286 53 -476 191 -625
73 -79 112 -104 160 -102 71 3 111 53 198 247 32 72 80 177 108 235 27 58 63
134 79 170 140 303 420 832 593 1120 31 52 65 108 74 124 55 96 389 587 468
686 6 8 64 83 129 165 64 83 120 152 123 155 3 3 33 37 66 75 62 72 97 112
200 225 80 87 387 393 451 450 44 39 163 144 198 175 6 6 31 26 56 45 25 19
47 37 50 40 3 3 48 38 100 77 288 215 571 342 630 283 25 -25 17 -57 -51 -195
-76 -154 -126 -237 -506 -829 -198 -311 -435 -700 -518 -851 -21 -38 -57 -104
-80 -145 -136 -246 -258 -533 -305 -715 -45 -174 -54 -242 -55 -410 0 -171 11
-248 51 -372 114 -349 417 -596 808 -659 21 -3 48 -8 60 -11 36 -9 382 -12
422 -3 22 5 53 11 69 13 151 24 375 110 560 214 55 32 102 60 105 63 3 3 19
14 35 24 164 103 399 317 555 506 197 238 312 449 385 707 27 95 42 225 41
343 -1 139 -10 164 -68 200 -65 39 -136 2 -188 -97 -56 -109 -305 -519 -405
-668 -96 -144 -242 -344 -291 -401 -11 -12 -39 -46 -64 -75 -25 -30 -86 -95
-137 -145 -216 -215 -427 -328 -604 -323 -122 3 -240 59 -305 144 -112 147
-145 393 -89 659 14 68 54 194 97 306 53 137 271 520 550 965 269 430 432 711
531 915 58 120 138 331 151 400 3 14 12 59 20 100 40 204 41 427 1 595 -15 65
-59 169 -92 218 -142 214 -369 226 -747 40 -375 -185 -857 -538 -1261 -924
-27 -26 -51 -46 -52 -45 -2 2 3 32 11 67 20 88 28 167 29 279 0 87 -3 117 -20
230 -10 67 -54 202 -87 270 -99 200 -238 307 -410 314 -195 8 -492 -131 -901
-423 -27 -19 -52 -38 -55 -41 -3 -3 -23 -19 -45 -35 -67 -49 -315 -258 -399
-336 -104 -96 -291 -284 -384 -384 -41 -44 -71 -71 -67 -60 170 464 185 886
42 1184 -64 132 -115 176 -187 164z"/>
<path d="M8050 2933 c-131 -18 -296 -128 -400 -268 -67 -88 -134 -231 -147
-310 -3 -16 -8 -48 -12 -71 -9 -49 -5 -151 8 -215 25 -115 92 -215 178 -266
43 -25 138 -50 178 -47 259 19 488 220 584 512 28 86 35 132 35 237 0 120 -5
148 -51 243 -61 126 -222 206 -373 185z"/>
</g>
</svg>
